<svg width="128" height="40" viewBox="0 0 128 40" fill="none" xmlns="http://www.w3.org/2000/svg">
<path fill-rule="evenodd" clip-rule="evenodd" d="M43.1338 5.84295C44.7131 5.34878 46.3592 4.98455 48.0497 4.75102V3.37113C46.121 3.50536 44.2449 3.79977 42.4367 4.25355L43.1338 5.84295ZM35.4958 6.97545C34.1714 7.70926 32.9081 8.55205 31.7145 9.50335L34.4798 10.4931C35.4008 9.7173 36.3865 9.0155 37.4272 8.38799L35.4958 6.97545ZM36.6492 6.3714L38.3407 7.86387C39.5713 7.19247 40.8708 6.61919 42.2243 6.14455L41.3232 4.55569C39.7024 5.02905 38.1406 5.63449 36.6492 6.3714ZM33.6158 11.2606L30.7352 10.322C29.5441 11.366 28.4298 12.5254 27.402 13.7997L31.0449 14.1506C31.8165 13.1032 32.6774 12.1398 33.6158 11.2606ZM30.3619 15.1357L26.4546 15.0412C25.5673 16.2702 24.7546 17.5947 24.0237 19.0144L28.7404 18.1301C29.2083 17.0712 29.7513 16.073 30.3619 15.1357ZM56.3851 3.74639C53.9801 3.37709 51.6183 3.23072 49.3246 3.30598L49.0848 4.62494C51.2631 4.3948 53.5065 4.37762 55.7685 4.57501L56.3851 3.74639ZM57.5172 4.76998L58.0892 4.04402C60.5594 4.52731 63.0685 5.24243 65.5901 6.19075L65.1479 6.63295C62.64 5.73726 60.0743 5.11704 57.5172 4.76998Z" fill="#9EC5FE"/>
<path fill-rule="evenodd" clip-rule="evenodd" d="M41.9623 3.17209C43.9077 2.6768 45.9421 2.34888 48.0496 2.20577V0.0639367C47.2667 0.0216151 46.4801 0 45.6912 0C44.0161 0 42.3503 0.105211 40.7063 0.308285L41.9623 3.17209ZM39.0496 0.547067L40.7308 3.51139C38.9573 4.03768 37.2637 4.70556 35.6627 5.50102L32.0678 2.32903C34.3122 1.5439 36.6527 0.942096 39.0496 0.547067ZM30.1394 3.05816C27.7679 4.02347 25.5232 5.19665 23.456 6.54773L30.2234 8.96974C31.5183 7.93133 32.9119 6.99373 34.3932 6.16917L30.1394 3.05816ZM25.6019 13.6264C26.6791 12.2582 27.8851 10.9858 29.2064 9.82387L22.0709 7.49883C19.9139 9.0545 17.9805 10.8125 16.336 12.7341L25.6019 13.6264ZM14.7554 14.7581L24.5888 14.996C23.6022 16.4177 22.7474 17.9295 22.0375 19.5167L11.0549 22.552C11.7775 19.785 13.0474 17.1656 14.7554 14.7581ZM49.8889 0.201748L49.5372 2.13598C49.8519 2.12777 50.168 2.12364 50.4855 2.12364C52.7459 2.12364 54.9821 2.32875 57.1457 2.72428L57.9013 1.70896C55.3383 0.981617 52.6447 0.465656 49.8889 0.201748ZM59.5363 2.20722L58.8497 3.07862C61.6954 3.74313 64.387 4.74319 66.8074 6.04335L67.2115 5.60115C64.8922 4.25898 62.303 3.10937 59.5363 2.20722Z" fill="#0D6EFD"/>
<path d="M127.5 14.0029C120.72 18.13 81.6589 17.6272 68.0982 21.5202C69.4249 19.604 87.5713 16.3223 109.075 14.0029C109.075 14.0029 96.9884 6.63295 80.922 7.81213C64.8555 8.99132 54.8238 14.8613 52.0318 17.0983C49.2397 19.3352 50.5835 20.4966 56.8959 21.5202C56.8959 21.5202 50.8181 22.1169 44.8092 21.5202C32.1044 22.3017 25.6687 23.3901 15.4769 26.5318C16.7413 26.3121 31.6908 28.448 29.6272 39.9451C24.4682 25.5 8.69655 24.4682 0 37.2919C3.5651 25.6406 13.3464 21.7955 42.5982 19.0144C46.9177 17.8452 63.9831 5.97911 83.4277 5.60116C105.832 4.42197 109.812 12.6763 127.5 14.0029Z" fill="white"/>
<path d="M63.2341 17.9827C62.5441 16.1189 56.8959 16.5087 56.8959 16.5087C58.5098 16.9892 59.4916 17.2375 60.1387 17.9827C58.9908 19.342 58.23 19.6132 56.8959 20.1936C57.5812 20.8718 63.9241 19.8464 63.2341 17.9827Z" fill="white"/>
<path d="M122.711 36.5278C121.669 36.5278 120.869 36.3311 120.312 35.9376C119.76 35.539 119.439 34.7598 119.347 33.5999L121.845 33.2626C121.886 33.7787 121.976 34.1492 122.114 34.374C122.257 34.5988 122.458 34.7112 122.719 34.7112C122.929 34.7112 123.079 34.6371 123.171 34.489C123.268 34.3408 123.317 34.1313 123.317 33.8605C123.317 33.4568 123.176 33.2089 122.895 33.117C122.614 33.025 122.167 32.9151 121.554 32.7874C120.803 32.6392 120.248 32.3531 119.891 31.9289C119.538 31.4997 119.362 30.8278 119.362 29.9131C119.362 28.9678 119.628 28.2856 120.159 27.8666C120.69 27.4425 121.49 27.2305 122.558 27.2305C123.611 27.2305 124.403 27.4272 124.934 27.8206C125.471 28.209 125.782 28.9806 125.869 30.1354L123.371 30.465C123.325 30 123.233 29.6448 123.095 29.3996C122.962 29.1543 122.778 29.0317 122.543 29.0317C122.323 29.0317 122.172 29.1083 122.091 29.2616C122.009 29.4098 121.968 29.6193 121.968 29.8901C121.968 30.2836 122.103 30.5186 122.374 30.5953C122.65 30.6668 123.079 30.7613 123.662 30.8789C124.357 31.0117 124.906 31.2774 125.31 31.676C125.719 32.0695 125.923 32.7107 125.923 33.5999C125.923 34.6882 125.665 35.4496 125.149 35.8839C124.633 36.3132 123.82 36.5278 122.711 36.5278Z" fill="white"/>
<path d="M114.62 36.5354C114.329 36.5354 114.056 36.515 113.8 36.4741C113.55 36.4384 113.323 36.3643 113.118 36.2518C112.919 36.1394 112.745 35.9785 112.597 35.769C112.454 35.5595 112.344 35.2861 112.267 34.9488C112.196 34.6116 112.16 34.1977 112.16 33.7072C112.16 33.2575 112.191 32.8717 112.252 32.5498C112.318 32.2279 112.413 31.9647 112.536 31.7603C112.658 31.5508 112.809 31.3873 112.988 31.2698C113.167 31.1522 113.369 31.0705 113.593 31.0245C113.823 30.9734 114.076 30.9478 114.352 30.9478H116.146V30.5723C116.146 30.1482 116.12 29.8288 116.069 29.6142C116.018 29.3945 115.944 29.2463 115.847 29.1696C115.75 29.0879 115.635 29.047 115.502 29.047C115.384 29.047 115.28 29.0853 115.188 29.162C115.096 29.2386 115.016 29.3842 114.95 29.5989C114.889 29.8084 114.848 30.1201 114.827 30.534L112.198 30.2427C112.229 29.6346 112.326 29.1339 112.49 28.7404C112.653 28.3469 112.875 28.0378 113.156 27.813C113.437 27.5881 113.775 27.4323 114.168 27.3454C114.567 27.2534 115.011 27.2075 115.502 27.2075C116.217 27.2075 116.815 27.302 117.295 27.4911C117.781 27.675 118.146 28.0123 118.391 28.5028C118.642 28.9882 118.767 29.6883 118.767 30.6029V36.4511H116.759L116.483 35.7306C116.447 35.8277 116.373 35.9248 116.261 36.0219C116.153 36.1139 116.018 36.2007 115.854 36.2825C115.691 36.3592 115.504 36.4205 115.295 36.4665C115.085 36.5124 114.861 36.5354 114.62 36.5354ZM115.364 34.7419C115.446 34.7419 115.527 34.7342 115.609 34.7189C115.696 34.6985 115.778 34.6704 115.854 34.6346C115.931 34.5988 115.995 34.5579 116.046 34.512C116.097 34.4609 116.13 34.4046 116.146 34.3433L116.176 32.4578H115.387C115.305 32.4578 115.228 32.4706 115.157 32.4961C115.085 32.5166 115.022 32.5651 114.965 32.6418C114.914 32.7133 114.873 32.8257 114.843 32.979C114.817 33.1272 114.804 33.3316 114.804 33.5922C114.804 33.8426 114.82 34.0444 114.85 34.1977C114.881 34.351 114.922 34.466 114.973 34.5426C115.024 34.6193 115.083 34.6729 115.149 34.7036C115.221 34.7291 115.292 34.7419 115.364 34.7419Z" fill="white"/>
<path d="M108.524 36.5354C106.807 36.5354 105.828 36.1088 105.588 35.2554C105.353 34.397 105.236 33.2779 105.236 31.8983C105.236 30.4829 105.353 29.3485 105.588 28.4951C105.828 27.6367 106.807 27.2075 108.524 27.2075C110.174 27.2075 111.102 27.6137 111.306 28.4261C111.516 29.2335 111.638 30.1073 111.674 31.0475L109.183 31.3694C109.168 30.4037 109.109 29.7803 109.007 29.4992C108.905 29.2131 108.744 29.07 108.524 29.07C108.304 29.07 108.136 29.2182 108.018 29.5145C107.906 29.8058 107.849 30.6004 107.849 31.8983C107.849 33.1349 107.906 33.909 108.018 34.2207C108.136 34.5273 108.304 34.6806 108.524 34.6806C108.744 34.6806 108.905 34.5324 109.007 34.236C109.109 33.9396 109.168 33.3367 109.183 32.4271L111.674 32.7644C111.638 33.6331 111.516 34.4787 111.306 35.3014C111.102 36.1241 110.174 36.5354 108.524 36.5354Z" fill="white"/>
<path d="M102.175 31.883C102.175 30.5748 102.134 29.7803 102.052 29.4992C101.97 29.2131 101.832 29.07 101.638 29.07C101.423 29.07 101.262 29.208 101.155 29.4839C101.053 29.7598 101.002 30.0511 101.002 30.3577L100.005 30.0741C100.005 29.0726 100.274 28.347 100.81 27.8973C101.347 27.4425 101.996 27.2151 102.757 27.2151C103.779 27.2151 104.367 27.6111 104.52 28.4032C104.673 29.1952 104.75 30.3551 104.75 31.883H102.175ZM98.4188 36.4511V27.2918H100.366L101.002 28.6024V36.4511H98.4188Z" fill="white"/>
<path d="M94.5878 36.5355C92.8657 36.5355 91.8821 36.0883 91.6368 35.1941C91.3916 34.2948 91.2689 33.1783 91.2689 31.8446C91.2689 30.4752 91.389 29.3587 91.6292 28.4951C91.8744 27.6316 92.8581 27.1998 94.5801 27.1998C96.3123 27.1998 97.296 27.6341 97.531 28.5028C97.7661 29.3715 97.8836 30.4854 97.8836 31.8446C97.8836 32.1512 97.8759 32.4323 97.8606 32.6878H93.6143V31.0552H95.4155L95.2929 31.2774C95.2929 30.3423 95.2367 29.7317 95.1243 29.4456C95.017 29.1594 94.8356 29.0163 94.5801 29.0163C94.3246 29.0163 94.1355 29.1671 94.0129 29.4686C93.8954 29.7649 93.8366 30.557 93.8366 31.8446C93.8366 33.1527 93.8979 33.9601 94.0206 34.2667C94.1432 34.5682 94.3323 34.7189 94.5878 34.7189V36.5355ZM94.5878 34.7189C94.7411 34.7189 94.8586 34.678 94.9403 34.5963C95.0272 34.5094 95.0962 34.3459 95.1473 34.1057C95.1984 33.8656 95.2444 33.5769 95.2852 33.2396L97.7686 33.5079C97.7277 34.3203 97.6 34.9259 97.3854 35.3244C97.1759 35.723 96.8642 36.0245 96.4503 36.2289C96.0364 36.4333 95.4155 36.5355 94.5878 36.5355V34.7189Z" fill="white"/>
<path d="M88.7542 36.4511L88.1257 35.2248V27.2918H90.7087V36.4511H88.7542ZM86.907 27.2918V32.2125C86.907 33.2907 86.9402 33.9678 87.0067 34.2437C87.0782 34.5196 87.2162 34.6576 87.4206 34.6576C87.6352 34.6576 87.8063 34.512 87.9341 34.2207C88.0618 33.9294 88.1257 33.4925 88.1257 32.91L89.3981 33.163C89.3981 34.0878 89.1247 34.8773 88.5779 35.5314C88.0312 36.1854 87.2928 36.5125 86.3628 36.5125C85.3153 36.5125 84.7149 36.0858 84.5616 35.2324C84.4083 34.3791 84.3317 33.3929 84.3317 32.2739V27.2918H86.907Z" fill="white"/>
<path d="M82.1014 36.5584C81.4218 36.5584 80.8725 36.4026 80.4535 36.0909C80.0345 35.7741 79.825 35.1737 79.825 34.2897V29.1466H78.752V27.2918H79.825V25.3526H82.4157V27.2918H83.849V29.1466H82.4157V33.7915C82.4157 34.1747 82.4719 34.42 82.5843 34.5273C82.6967 34.6346 82.8526 34.6882 83.0519 34.6882C83.2971 34.6882 83.5092 34.6525 83.688 34.5809V36.3975C83.1771 36.5048 82.6482 36.5584 82.1014 36.5584Z" fill="white"/>
<path d="M71.5022 36.4511L70.0919 27.2918H72.7822L73.702 34.8032H73.4951L74.3918 27.2918H77.0822L75.7178 36.4511H71.5022ZM70.6668 39.9999V38.1374C71.5303 38.1323 72.1716 38.025 72.5906 37.8155C73.0147 37.6111 73.2779 37.1537 73.3801 36.4435L75.7178 36.4511C75.493 37.9483 74.9437 38.9141 74.0699 39.3484C73.1961 39.7827 72.0618 39.9999 70.6668 39.9999Z" fill="white"/>
<path d="M65.1085 36.5278C64.0661 36.5278 63.2664 36.3311 62.7094 35.9376C62.1575 35.539 61.8356 34.7598 61.7437 33.5999L64.2424 33.2626C64.2832 33.7787 64.3727 34.1492 64.5106 34.374C64.6537 34.5988 64.8555 34.7112 65.1161 34.7112C65.3256 34.7112 65.4764 34.6371 65.5684 34.489C65.6654 34.3408 65.714 34.1313 65.714 33.8605C65.714 33.4568 65.5735 33.2089 65.2924 33.117C65.0114 33.025 64.5643 32.9151 63.9511 32.7874C63.2 32.6392 62.6455 32.3531 62.2878 31.9289C61.9353 31.4997 61.759 30.8278 61.759 29.9131C61.759 28.9678 62.0247 28.2856 62.5561 27.8666C63.0875 27.4425 63.8872 27.2305 64.9552 27.2305C66.0078 27.2305 66.7998 27.4272 67.3312 27.8206C67.8678 28.209 68.1795 28.9806 68.2663 30.1354L65.7676 30.465C65.7217 30 65.6297 29.6448 65.4917 29.3996C65.3589 29.1543 65.1749 29.0317 64.9398 29.0317C64.7201 29.0317 64.5694 29.1083 64.4876 29.2616C64.4059 29.4098 64.365 29.6193 64.365 29.8901C64.365 30.2836 64.5004 30.5186 64.7712 30.5953C65.0472 30.6668 65.4764 30.7613 66.0589 30.8789C66.7538 31.0117 67.3031 31.2774 67.7068 31.676C68.1156 32.0695 68.32 32.7107 68.32 33.5999C68.32 34.6882 68.062 35.4496 67.5459 35.8839C67.0298 36.3132 66.2173 36.5278 65.1085 36.5278Z" fill="white"/>
<path d="M57.9352 36.5278C56.2337 36.5278 55.2577 36.096 55.0073 35.2324C54.762 34.3689 54.6394 33.2396 54.6394 31.8446C54.6394 30.4599 54.762 29.3383 55.0073 28.4798C55.2577 27.6214 56.2337 27.1921 57.9352 27.1921C59.6368 27.1921 60.6128 27.6214 60.8632 28.4798C61.1136 29.3383 61.2387 30.4599 61.2387 31.8446C61.2387 33.2396 61.1136 34.3689 60.8632 35.2324C60.6128 36.096 59.6368 36.5278 57.9352 36.5278ZM57.9352 34.6806C58.1805 34.6806 58.3619 34.5375 58.4794 34.2514C58.597 33.9601 58.6557 33.1604 58.6557 31.8523C58.6557 30.5493 58.597 29.7547 58.4794 29.4686C58.3619 29.1773 58.1805 29.0317 57.9352 29.0317C57.6951 29.0317 57.5162 29.1773 57.3987 29.4686C57.2812 29.7547 57.2224 30.5493 57.2224 31.8523C57.2224 33.1604 57.2812 33.9601 57.3987 34.2514C57.5162 34.5375 57.6951 34.6806 57.9352 34.6806Z" fill="white"/>
<path d="M52.4775 36.5584C51.7979 36.5584 51.2486 36.4026 50.8296 36.0909C50.4106 35.7741 50.2011 35.1737 50.2011 34.2897V29.1466H49.1281V27.2918H50.2011V25.3526H52.7918V27.2918H54.2251V29.1466H52.7918V33.7915C52.7918 34.1747 52.848 34.42 52.9604 34.5273C53.0728 34.6346 53.2287 34.6882 53.428 34.6882C53.6732 34.6882 53.8853 34.6525 54.0641 34.5809V36.3975C53.5532 36.5048 53.0243 36.5584 52.4775 36.5584Z" fill="white"/>
<path d="M46.7053 36.4511L46.0768 35.2248V27.2918H48.6598V36.4511H46.7053ZM44.8581 27.2918V32.2125C44.8581 33.2907 44.8913 33.9678 44.9577 34.2437C45.0292 34.5196 45.1672 34.6576 45.3716 34.6576C45.5862 34.6576 45.7574 34.512 45.8851 34.2207C46.0129 33.9294 46.0768 33.4925 46.0768 32.91L47.3491 33.163C47.3491 34.0878 47.0757 34.8773 46.529 35.5314C45.9822 36.1854 45.2439 36.5125 44.3139 36.5125C43.2664 36.5125 42.666 36.0858 42.5127 35.2324C42.3594 34.3791 42.2827 33.3929 42.2827 32.2739V27.2918H44.8581Z" fill="white"/>
<path d="M37.5413 36.5354C37.2501 36.5354 36.9767 36.515 36.7212 36.4741C36.4708 36.4384 36.2434 36.3643 36.039 36.2518C35.8397 36.1394 35.666 35.9785 35.5178 35.769C35.3747 35.5595 35.2649 35.2861 35.1882 34.9488C35.1167 34.6116 35.0809 34.1977 35.0809 33.7072C35.0809 33.2575 35.1116 32.8717 35.1729 32.5498C35.2393 32.2279 35.3339 31.9647 35.4565 31.7603C35.5791 31.5508 35.7299 31.3873 35.9087 31.2698C36.0876 31.1522 36.2894 31.0705 36.5142 31.0245C36.7442 30.9734 36.9971 30.9478 37.273 30.9478H39.0666V30.5723C39.0666 30.1482 39.041 29.8288 38.9899 29.6142C38.9389 29.3945 38.8648 29.2463 38.7677 29.1696C38.6706 29.0879 38.5556 29.047 38.4228 29.047C38.3052 29.047 38.2005 29.0853 38.1085 29.162C38.0165 29.2386 37.9373 29.3842 37.8709 29.5989C37.8096 29.8084 37.7687 30.1201 37.7483 30.534L35.1193 30.2427C35.1499 29.6346 35.247 29.1339 35.4105 28.7404C35.574 28.3469 35.7963 28.0378 36.0773 27.813C36.3584 27.5881 36.6956 27.4323 37.0891 27.3454C37.4877 27.2534 37.9322 27.2075 38.4228 27.2075C39.1381 27.2075 39.736 27.302 40.2163 27.4911C40.7017 27.675 41.0671 28.0123 41.3124 28.5028C41.5627 28.9882 41.6879 29.6883 41.6879 30.6029V36.4511H39.6798L39.4038 35.7306C39.3681 35.8277 39.294 35.9248 39.1816 36.0219C39.0743 36.1139 38.9389 36.2007 38.7753 36.2825C38.6118 36.3592 38.4253 36.4205 38.2158 36.4665C38.0063 36.5124 37.7815 36.5354 37.5413 36.5354ZM38.2848 34.7419C38.3666 34.7419 38.4483 34.7342 38.5301 34.7189C38.6169 34.6985 38.6987 34.6704 38.7753 34.6346C38.852 34.5988 38.9159 34.5579 38.967 34.512C39.0181 34.4609 39.0513 34.4046 39.0666 34.3433L39.0973 32.4578H38.3078C38.226 32.4578 38.1494 32.4706 38.0778 32.4961C38.0063 32.5166 37.9424 32.5651 37.8862 32.6418C37.8351 32.7133 37.7943 32.8257 37.7636 32.979C37.738 33.1272 37.7253 33.3316 37.7253 33.5922C37.7253 33.8426 37.7406 34.0444 37.7713 34.1977C37.8019 34.351 37.8428 34.466 37.8939 34.5426C37.945 34.6193 38.0038 34.6729 38.0702 34.7036C38.1417 34.7291 38.2133 34.7419 38.2848 34.7419Z" fill="white"/>
<path d="M48.4941 13.4133L45.6935 15.1821L20.9305 10.7601L48.4941 13.4133Z" fill="white"/>
</svg>
