<svg width="162" height="45" viewBox="0 0 162 45" fill="none" xmlns="http://www.w3.org/2000/svg">
<path d="M134.766 16.3041C133.918 16.3041 133.334 16.3921 133.014 16.5681C132.71 16.7281 132.558 17.0881 132.558 17.6481C132.558 17.9201 132.622 18.1281 132.75 18.2721C132.878 18.4001 133.094 18.4881 133.398 18.5361L136.35 18.9681C137.294 19.0961 137.95 19.3921 138.318 19.8561C138.702 20.3201 138.894 21.0561 138.894 22.0641C138.894 23.5201 138.558 24.5761 137.886 25.2321C137.214 25.8881 136.07 26.2161 134.454 26.2161C133.526 26.2161 132.678 26.1761 131.91 26.0961C131.142 26.0161 130.494 25.8961 129.966 25.7361V23.2641C130.462 23.3921 131.07 23.5041 131.79 23.6001C132.51 23.6801 133.238 23.7201 133.974 23.7201C134.806 23.7201 135.366 23.6161 135.654 23.4081C135.958 23.2001 136.11 22.8081 136.11 22.2321C136.11 21.9441 136.038 21.7281 135.894 21.5841C135.75 21.4241 135.51 21.3201 135.174 21.2721L132.174 20.8401C131.358 20.7281 130.758 20.4241 130.374 19.9281C129.99 19.4161 129.798 18.6801 129.798 17.7201C129.798 16.4241 130.19 15.4641 130.974 14.8401C131.774 14.2161 132.982 13.9041 134.598 13.9041C135.254 13.9041 135.854 13.9201 136.398 13.9521C136.942 13.9841 137.502 14.0481 138.078 14.1441V16.5201C137.662 16.4561 137.158 16.4081 136.566 16.3761C135.99 16.3281 135.39 16.3041 134.766 16.3041Z" fill="#FF4500"/>
<path d="M128.19 20.0481C128.19 22.2881 127.758 23.8801 126.894 24.8241C126.046 25.7521 124.59 26.2161 122.526 26.2161C120.43 26.2161 118.958 25.7601 118.11 24.8481C117.262 23.9201 116.838 22.3201 116.838 20.0481C116.838 17.8241 117.27 16.2481 118.134 15.3201C118.998 14.3761 120.462 13.9041 122.526 13.9041C124.606 13.9041 126.07 14.3681 126.918 15.2961C127.766 16.2081 128.19 17.7921 128.19 20.0481ZM119.622 20.0241C119.622 21.4961 119.806 22.4641 120.174 22.9281C120.542 23.3921 121.326 23.6241 122.526 23.6241C123.694 23.6241 124.462 23.3921 124.83 22.9281C125.214 22.4481 125.406 21.4801 125.406 20.0241C125.406 18.5361 125.222 17.5601 124.854 17.0961C124.502 16.6321 123.726 16.4001 122.526 16.4001C121.342 16.4001 120.558 16.6401 120.174 17.1201C119.806 17.6001 119.622 18.5681 119.622 20.0241Z" fill="#FF4500"/>
<path d="M115.875 23.408V25.784C115.603 25.896 115.219 25.992 114.723 26.072C114.243 26.168 113.803 26.216 113.403 26.216C111.883 26.216 110.795 25.888 110.139 25.232C109.483 24.56 109.155 23.448 109.155 21.896V16.472H107.571V14.144H109.227L109.611 11.312H111.939V14.144H115.731V16.472H111.939V21.8C111.939 22.504 112.091 22.984 112.395 23.24C112.699 23.496 113.243 23.624 114.027 23.624C114.299 23.624 114.619 23.608 114.987 23.576C115.355 23.528 115.651 23.472 115.875 23.408Z" fill="#FF4500"/>
<path d="M99.5032 26.216C98.1752 26.216 97.1832 25.888 96.5272 25.232C95.8712 24.56 95.5432 23.56 95.5432 22.232V14.144H98.3272V21.872C98.3272 22.48 98.4872 22.92 98.8072 23.192C99.1272 23.464 99.6472 23.6 100.367 23.6C100.815 23.6 101.271 23.552 101.735 23.456C102.199 23.36 102.631 23.232 103.031 23.072V14.144H105.815V26H103.247L103.151 25.184H103.079C102.423 25.52 101.791 25.776 101.183 25.952C100.591 26.128 100.031 26.216 99.5032 26.216Z" fill="#FF4500"/>
<path d="M83.024 26H80L85.76 10.952H88.736L94.4 26H91.376L90.296 22.928H84.08L83.024 26ZM87.176 13.712C87 14.32 86.8 14.96 86.576 15.632C86.368 16.304 86.168 16.928 85.976 17.504L84.92 20.552H89.456L88.4 17.504C88.224 16.992 88.024 16.4 87.8 15.728C87.576 15.04 87.368 14.368 87.176 13.712Z" fill="#FF4500"/>
<path d="M157.791 31.4C156.943 31.4 156.359 31.488 156.039 31.664C155.735 31.824 155.583 32.184 155.583 32.744C155.583 33.016 155.647 33.224 155.775 33.368C155.903 33.496 156.119 33.584 156.423 33.632L159.375 34.064C160.319 34.192 160.975 34.488 161.343 34.952C161.727 35.416 161.919 36.152 161.919 37.16C161.919 38.616 161.583 39.672 160.911 40.328C160.239 40.984 159.095 41.312 157.479 41.312C156.551 41.312 155.703 41.272 154.935 41.192C154.167 41.112 153.519 40.992 152.991 40.832V38.36C153.487 38.488 154.095 38.6 154.815 38.696C155.535 38.776 156.263 38.816 156.999 38.816C157.831 38.816 158.391 38.712 158.679 38.504C158.983 38.296 159.135 37.904 159.135 37.328C159.135 37.04 159.063 36.824 158.919 36.68C158.775 36.52 158.535 36.416 158.199 36.368L155.199 35.936C154.383 35.824 153.783 35.52 153.399 35.024C153.015 34.512 152.823 33.776 152.823 32.816C152.823 31.52 153.215 30.56 153.999 29.936C154.799 29.312 156.007 29 157.623 29C158.279 29 158.879 29.016 159.423 29.048C159.967 29.08 160.527 29.144 161.103 29.24V31.616C160.687 31.552 160.183 31.504 159.591 31.472C159.015 31.424 158.415 31.4 157.791 31.4Z" fill="white"/>
<path d="M144.323 41.312C143.107 41.312 142.211 41.016 141.635 40.424C141.075 39.816 140.795 38.872 140.795 37.592C140.795 36.28 141.131 35.352 141.803 34.808C142.491 34.264 143.667 33.992 145.331 33.992C145.795 33.992 146.267 34.016 146.747 34.064C147.227 34.112 147.643 34.176 147.995 34.256V33.248C147.995 32.624 147.803 32.168 147.419 31.88C147.035 31.592 146.427 31.448 145.595 31.448C144.843 31.448 144.171 31.472 143.579 31.52C143.003 31.568 142.451 31.648 141.923 31.76V29.432C142.531 29.288 143.187 29.184 143.891 29.12C144.611 29.04 145.459 29 146.435 29C147.891 29 148.979 29.336 149.699 30.008C150.419 30.664 150.779 31.656 150.779 32.984V41.096H148.211L148.091 40.04H148.043C147.531 40.424 146.939 40.736 146.267 40.976C145.611 41.2 144.963 41.312 144.323 41.312ZM145.667 35.984C144.803 35.984 144.211 36.088 143.891 36.296C143.571 36.488 143.411 36.864 143.411 37.424C143.411 37.968 143.539 38.36 143.795 38.6C144.067 38.824 144.523 38.936 145.163 38.936C145.627 38.936 146.115 38.872 146.627 38.744C147.155 38.6 147.611 38.424 147.995 38.216V36.176C147.611 36.112 147.227 36.064 146.843 36.032C146.475 36 146.083 35.984 145.667 35.984Z" fill="white"/>
<path d="M139.677 38.096V40.424C139.261 40.664 138.637 40.872 137.805 41.048C136.989 41.224 136.141 41.312 135.261 41.312C133.565 41.312 132.373 40.856 131.685 39.944C130.997 39.032 130.653 37.432 130.653 35.144C130.653 32.888 131.093 31.304 131.973 30.392C132.869 29.464 134.405 29 136.581 29C137.109 29 137.581 29.016 137.997 29.048C138.429 29.064 138.885 29.104 139.365 29.168V31.64C138.741 31.592 138.197 31.56 137.733 31.544C137.269 31.512 136.885 31.496 136.581 31.496C135.269 31.496 134.413 31.728 134.013 32.192C133.629 32.656 133.437 33.64 133.437 35.144C133.437 36.6 133.589 37.56 133.893 38.024C134.213 38.488 134.869 38.72 135.861 38.72C136.517 38.72 137.189 38.664 137.877 38.552C138.581 38.424 139.181 38.272 139.677 38.096Z" fill="white"/>
<path d="M125.713 41.096H122.929V29.24H125.497L125.617 30.2H125.689C126.281 29.848 126.881 29.576 127.489 29.384C128.097 29.192 128.689 29.096 129.265 29.096C129.425 29.096 129.529 29.096 129.577 29.096C129.641 29.096 129.689 29.104 129.721 29.12V31.808C129.625 31.776 129.497 31.76 129.337 31.76C129.193 31.744 128.937 31.736 128.569 31.736C128.009 31.736 127.489 31.784 127.009 31.88C126.529 31.976 126.097 32.112 125.713 32.288V41.096Z" fill="white"/>
<path d="M120.313 38.192V40.448C119.913 40.688 119.281 40.896 118.417 41.072C117.569 41.232 116.681 41.312 115.753 41.312C113.865 41.312 112.505 40.832 111.673 39.872C110.857 38.912 110.449 37.328 110.449 35.12C110.449 32.992 110.881 31.44 111.745 30.464C112.609 29.488 113.977 29 115.849 29C117.657 29 118.937 29.376 119.689 30.128C120.441 30.88 120.817 32.168 120.817 33.992C120.817 34.328 120.809 34.64 120.793 34.928C120.777 35.2 120.745 35.584 120.697 36.08H113.257C113.273 37.072 113.489 37.768 113.905 38.168C114.337 38.568 115.097 38.768 116.185 38.768C116.905 38.768 117.649 38.712 118.417 38.6C119.185 38.488 119.817 38.352 120.313 38.192ZM115.849 31.424C114.873 31.424 114.193 31.616 113.809 32C113.441 32.384 113.257 33.08 113.257 34.088H118.273V33.584C118.257 32.768 118.073 32.208 117.721 31.904C117.369 31.584 116.745 31.424 115.849 31.424Z" fill="white"/>
<path d="M101.997 41.312C100.669 41.312 99.6771 40.984 99.0211 40.328C98.3651 39.656 98.0371 38.656 98.0371 37.328V29.24H100.821V36.968C100.821 37.576 100.981 38.016 101.301 38.288C101.621 38.56 102.141 38.696 102.861 38.696C103.309 38.696 103.765 38.648 104.229 38.552C104.693 38.456 105.125 38.328 105.525 38.168V29.24H108.309V41.096H105.741L105.645 40.28H105.573C104.917 40.616 104.285 40.872 103.677 41.048C103.085 41.224 102.525 41.312 101.997 41.312Z" fill="white"/>
<path d="M97 29.0959V31.1629H92.8116V41.0959H90.1663V31.1629H86V29.0959H97Z" fill="white"/>
<path d="M72.1818 41.0944C72.6801 41.0944 73.0505 41.0019 73.2929 40.817C73.5354 40.6452 73.7441 40.2753 73.9192 39.7072L70 30.0959H72.6263L75.1111 37.4481L77.4747 30.0959H80L76.1818 40.3216C75.8047 41.3256 75.3401 42.039 74.7879 42.4618C74.2492 42.8846 73.5354 43.0959 72.6465 43.0959C72.3771 43.0959 72.101 43.0827 71.8182 43.0563C71.5354 43.0299 71.2862 42.9969 71.0707 42.9572V41.035C71.1785 41.0614 71.3064 41.0746 71.4545 41.0746C71.6027 41.0878 71.8451 41.0944 72.1818 41.0944Z" fill="white"/>
<path fill-rule="evenodd" clip-rule="evenodd" d="M27.7164 9.18035C24.7795 11.2711 22.0853 13.189 18.7662 13.5209C12.7662 14.1209 9.12419 15.8421 5.76621 17.521C5.7421 17.533 5.71796 17.5455 5.69378 17.5583C11.5085 19.3242 21.2755 17.8738 31.2542 16.392C33.2594 16.0942 35.2731 15.7952 37.265 15.5208C41.5382 14.932 48.2651 14.5208 48.2651 14.5208C48.2955 16.5825 44.2684 19.7362 40.2684 20.2362C38.6416 20.4395 36.4887 20.4788 35.2651 20.5207C33.4801 20.5819 31.2651 21.0207 27.7651 21.5207C25.9943 21.7963 25.0841 22.2513 23.2076 22.6983C20.4775 23.3486 17.8188 23.9818 15.7651 24.0207C10.1073 24.1277 3.94518 22.7051 1.93754 22.1972C0.193522 25.706 -0.765088 30.2666 0.765104 33.021C1.26514 28.521 1.63624 27.0844 3.2661 26.021C3.74128 26.2588 10.0848 26.8115 16.2651 26.521C19.3618 26.2806 22.1607 25.8349 24.4233 25.4745C27.0533 25.0557 28.9588 24.7522 29.7651 25.021C30.5151 25.271 32.2652 27.771 34.0152 30.271C35.7652 32.771 37.5151 35.271 38.2651 35.521C39.7651 36.021 46.3634 35.1788 47.2651 35.021C48.1505 34.866 48.2613 34.5334 48.7382 33.1018L48.7651 33.021C49.7651 26.021 53.5095 20.257 57.7651 20.521C63.2651 20.8621 65.2651 24.521 66.2651 35.021L68.2652 25.4745H79L83.7651 13.521L64.7651 14.021C63.4599 13.9537 63.3492 13.4316 63.7651 12.021C63.7651 12.021 66.7651 3.64596 73.2651 2.02096C79.7651 0.39596 97.7651 9.52093 97.7651 9.52093C88.6856 0.708453 77.614 -0.162907 66.2651 0.0206874C56.365 0.180845 46.3735 0.577766 35.7651 4.52082C32.6191 5.69017 30.0886 7.49161 27.7164 9.18035ZM40.7651 4.52069C34.3752 5.67467 23.7651 14.021 23.7651 14.021C23.7651 14.021 27.9554 14.1649 33.2651 13.5207C40.6219 12.6281 50.5877 10.8398 58.6549 10.5891C58.7811 10.5852 59.1434 10.5247 59.2651 10.5209C59.7651 10.5 63.6308 6.83269 65.7965 4.2356C66.9692 2.82925 67.9139 1.69648 68.2651 1.52087C69.2651 1.02097 43.7651 3.5205 40.7651 4.52069ZM42.7651 29.0207H35.2651C35.2651 29.0207 36.7651 30.0207 37.2651 30.5207C37.5154 30.7709 37.6946 31.2186 37.9094 31.7552C38.1237 32.2908 38.3737 32.9152 38.7651 33.5207H42.7651C43.2651 33.5207 44.7651 32.5207 42.7651 29.0207ZM66.7652 12.0207C66.4171 10.5579 67.2651 8.2707 67.7651 8.02068C68.2651 7.77066 72.2567 7.71762 74.7651 8.52072C76.1802 9.08134 76.2563 10.0961 75.7651 12.5207C75.3403 11.3966 75.059 10.8598 74.2651 10.5207H71.7651H69.7651L68.2651 11.0207L66.7652 12.0207ZM1.26514 38.0207C14.3552 38.5109 22.0045 38.2292 35.7651 37.5207C35.9037 36.9106 35.7272 36.5803 34.7651 36.0207C34.7651 36.0207 24.4152 36.9554 17.7651 37.0207C11.9043 37.0782 2.76514 36.5207 2.76514 36.5207C1.82605 36.8042 1.5316 37.1637 1.26514 38.0207Z" fill="white"/>
<path d="M16.8039 21.5208C23.6979 21.3011 28.304 19.0207 27.3039 19.0208C26.3038 19.0208 21.8506 20.2211 18.2979 20.5208C14.6032 20.8324 11.4561 20.7176 8.80391 20.5208C8.49679 20.6897 9.90994 21.7404 16.8039 21.5208Z" fill="white"/>
<path fill-rule="evenodd" clip-rule="evenodd" d="M67.2654 7.52085C70.516 4.41188 72.4904 3.07377 77.2654 4.02085C78.2629 7.13614 78.6731 8.88952 79.2654 12.0208C79.5283 10.159 79.4824 8.24373 78.7654 4.02085C85.1786 5.61935 88.0842 6.77389 92.7654 9.02085H94.7654C93.2478 7.59192 80.2649 2.0205 74.7651 2.52067C69.2654 3.02083 67.5209 6.59875 67.2654 7.52085ZM30.765 17.5207C29.501 18.5894 29.048 19.0864 28.3845 20.3661C31.7877 19.4399 35.5706 19.4219 37.6508 19.4121C38.3789 19.4086 38.8984 19.4062 39.12 19.3661C39.5304 19.2919 39.9258 18.7486 40.3627 18.1483C40.836 17.4979 41.3581 16.7807 42.0005 16.5207C42.7651 16.5207 40.265 19.5207 40.265 19.5207C44.5687 17.8315 47.2651 16.5207 47.265 15.0207C39.7698 15.6218 36.1279 16.1559 30.765 17.5207ZM2.76514 21.0207C4.7011 21.9044 5.79522 22.205 7.76514 22.5207V19.0207C6.93435 18.5209 6.35818 18.3231 5.26514 18.0207C4.06841 19.0755 3.49608 19.7209 2.76514 21.0207ZM57.2651 44.0207C60.5788 44.0207 63.2651 39.3197 63.2651 33.5207C63.2651 27.7217 60.5788 23.0207 57.2651 23.0207C53.9514 23.0207 51.2651 27.7217 51.2651 33.5207C51.2651 39.3197 53.9514 44.0207 57.2651 44.0207ZM56.7651 42.5207C59.5266 42.5207 61.7651 38.4912 61.7651 33.5207C61.7651 28.5501 59.5266 24.5207 56.7651 24.5207C54.0037 24.5207 51.7651 28.5501 51.7651 33.5207C51.7651 38.4912 54.0037 42.5207 56.7651 42.5207ZM3.2652 33.5207C2.76515 32.5207 2.26515 30.0207 3.76499 28.5207C4.03893 29.2665 4.34486 29.6065 5.26507 30.0207L26.7651 29.5207C27.4338 28.864 27.6398 28.4174 27.7651 27.5207C31.7651 30.5207 31.2651 32.5207 31.2651 32.5207C31.2651 32.5207 29.9239 30.404 28.2651 29.5207C27.9052 30.0586 27.8501 30.3824 27.7651 31.0207L16.2651 31.2707L4.76507 31.5207C4.41452 30.9597 4.20633 30.7504 3.76507 30.5207C3.26164 31.446 3.26255 31.9525 3.26486 33.2391C3.26502 33.329 3.26519 33.4227 3.2652 33.5207Z" fill="#FF4500"/>
</svg>
