<svg height="45" viewBox="0 0 427 99" fill="none" xmlns="http://www.w3.org/2000/svg">
<path d="M234.035 62.3286H207V51.0495H234.035C234.843 51.0495 235.537 50.773 236.114 50.2201C236.692 49.6672 236.981 49.0037 236.981 48.2297C236.981 47.428 236.692 46.9027 236.114 46.6539C235.537 46.4051 234.843 46.2807 234.035 46.2807H221.73C219.68 46.2807 217.759 45.9075 215.968 45.1611C214.177 44.4147 212.618 43.4056 211.289 42.134C209.961 40.8347 208.906 39.328 208.126 37.614C207.375 35.9001 207 34.0617 207 32.0989C207 30.1361 207.375 28.2977 208.126 26.5837C208.906 24.8698 209.961 23.3769 211.289 22.1053C212.618 20.8336 214.177 19.8384 215.968 19.1196C217.759 18.3732 219.68 18 221.73 18L248.765 18V29.2791H221.73C220.922 29.2791 220.228 29.5556 219.651 30.1085C219.073 30.6614 218.784 31.3248 218.784 32.0989C218.784 32.9006 219.073 33.5917 219.651 34.1723C220.228 34.7252 220.922 35.0016 221.73 35.0016H234.035C236.056 35.0016 237.963 35.3333 239.753 35.9968C241.544 36.6326 243.104 37.5311 244.433 38.6922C245.761 39.8533 246.815 41.2493 247.595 42.8804C248.375 44.5114 248.765 46.2945 248.765 48.2297C248.765 50.1925 248.375 52.0308 247.595 53.7448C246.815 55.4312 245.761 56.924 244.433 58.2233C243.104 59.495 241.544 60.504 239.753 61.2504C237.963 61.9692 236.056 62.3286 234.035 62.3286Z" fill="#FF711B"/>
<path d="M107.503 56.4371C106.528 57.2497 105.479 58.0217 104.356 58.753C103.263 59.4573 102.111 60.0803 100.899 60.6221C99.6876 61.1367 98.4317 61.543 97.1316 61.841C95.861 62.1661 94.5608 62.3286 93.2311 62.3286C90.3057 62.3286 87.5576 61.8545 84.9869 60.9065C82.4161 59.9584 80.1556 58.6176 78.2053 56.884C76.2846 55.1233 74.7628 52.997 73.64 50.5049C72.5467 47.9858 72 45.1687 72 42.0536V18H84.0561V42.0536C84.0561 43.5164 84.2925 44.8301 84.7652 45.9949C85.2676 47.1325 85.9324 48.0941 86.7598 48.8797C87.5872 49.6652 88.5475 50.2611 89.6409 50.6674C90.7637 51.0737 91.9605 51.2769 93.2311 51.2769C94.4722 51.2769 95.6394 51.0196 96.7327 50.5049C97.8555 49.9632 98.8307 49.2589 99.658 48.3921C100.485 47.5253 101.135 46.5501 101.608 45.4667C102.081 44.3561 102.317 43.2184 102.317 42.0536V18H114.418V61.516H111.492L107.503 56.4371Z" fill="#FF711B"/>
<path d="M48.7358 37.8264V25.2176C48.7358 23.4895 48.3014 21.864 47.4324 20.341C46.6013 18.7887 45.449 17.4414 43.9756 16.2992C42.5022 15.1569 40.7643 14.2636 38.762 13.6192C36.7974 12.9456 34.7007 12.6088 32.4717 12.6088C30.2427 12.6088 28.127 12.9456 26.1247 13.6192C24.1601 14.2636 22.4411 15.1569 20.9677 16.2992C19.4943 17.4414 18.3232 18.7887 17.4542 20.341C16.6231 21.864 16.2075 23.4895 16.2075 25.2176V37.8264H48.7358ZM65 63H48.7358V50.3912H16.2075V63H0V25.2176C0 21.7322 0.850044 18.4665 2.55013 15.4205C4.25022 12.3452 6.55478 9.66527 9.46382 7.38075C12.4106 5.09623 15.8486 3.29498 19.7777 1.97699C23.7445 0.658996 27.9759 0 32.4717 0C36.9675 0 41.1799 0.658996 45.109 1.97699C49.0758 3.29498 52.5327 5.09623 55.4795 7.38075C58.4263 9.66527 60.7498 12.3452 62.4499 15.4205C64.15 18.4665 65 21.7322 65 25.2176V63Z" fill="#FF711B"/>
<path d="M143.415 62.6714C140.674 62.6714 138.099 62.1551 135.691 61.1224C133.282 60.0619 131.164 58.6245 129.337 56.8104C127.537 54.9683 126.112 52.8332 125.06 50.4051C124.035 47.9769 123.523 45.3813 123.523 42.6182V29.3053H118V17.9181H123.523V0H134.818V17.9181H152.011V29.3053H134.818V42.6182C134.818 43.8184 135.04 44.9487 135.483 46.0093C135.926 47.0419 136.535 47.949 137.31 48.7305C138.085 49.512 138.999 50.1399 140.051 50.6144C141.103 51.061 142.224 51.2842 143.415 51.2842H152.011V62.6714H143.415Z" fill="#FF711B"/>
<path d="M203.768 40.2034C203.768 43.3362 203.142 46.2601 201.89 48.9752C200.639 51.6641 198.936 54.0006 196.782 55.9847C194.628 57.9427 192.095 59.496 189.184 60.6447C186.302 61.7673 183.202 62.3286 179.884 62.3286C176.595 62.3286 173.495 61.7673 170.584 60.6447C167.702 59.496 165.169 57.9427 162.986 55.9847C160.832 54.0006 159.129 51.6641 157.878 48.9752C156.626 46.2601 156 43.3362 156 40.2034C156 37.0185 156.626 34.0685 157.878 31.3534C159.129 28.6383 160.832 26.3018 162.986 24.3438C165.169 22.3598 167.702 20.8064 170.584 19.6839C173.495 18.5613 176.595 18 179.884 18C183.202 18 186.302 18.5352 189.184 19.6055C192.095 20.6498 194.628 22.1509 196.782 24.1089C198.936 26.0408 200.639 28.3773 201.89 31.1184C203.142 33.8335 203.768 36.8618 203.768 40.2034ZM191.76 40.2034C191.76 38.4804 191.44 36.9271 190.8 35.5435C190.189 34.1337 189.344 32.9328 188.267 31.9408C187.19 30.9226 185.924 30.1525 184.469 29.6304C183.042 29.0821 181.514 28.808 179.884 28.808C178.254 28.808 176.711 29.0821 175.256 29.6304C173.829 30.1525 172.578 30.9226 171.501 31.9408C170.453 32.9328 169.623 34.1337 169.012 35.5435C168.4 36.9271 168.095 38.4804 168.095 40.2034C168.095 41.822 168.4 43.3232 169.012 44.7068C169.623 46.0904 170.453 47.2913 171.501 48.3095C172.578 49.3276 173.829 50.1369 175.256 50.7374C176.711 51.3117 178.254 51.5989 179.884 51.5989C181.514 51.5989 183.042 51.3247 184.469 50.7765C185.924 50.2283 187.19 49.4581 188.267 48.4661C189.344 47.4741 190.189 46.2732 190.8 44.8634C191.44 43.4537 191.76 41.9004 191.76 40.2034Z" fill="#FF711B"/>
<path d="M204.187 89.3174C207.43 90.2834 211.026 90.7665 214.975 90.7665C216.888 90.7665 218.322 90.7006 219.278 90.5689C220.235 90.4371 220.879 90.2176 221.212 89.9102C221.544 89.6028 221.71 89.1856 221.71 88.6587C221.71 87.9122 221.44 87.4511 220.9 87.2755C220.401 87.0998 219.382 86.8583 217.844 86.5509L212.918 85.5629C209.758 84.9042 207.471 83.8723 206.058 82.4671C204.686 81.018 204 78.8663 204 76.012C204 72.1477 205.081 69.513 207.243 68.1078C209.446 66.7026 212.938 66 217.719 66C220.588 66 223.103 66.1756 225.265 66.5269C227.468 66.8343 229.298 67.2295 230.753 67.7126L230.628 75.6826L230.441 75.8802C227.074 74.7385 223.394 74.1677 219.403 74.1677C217.449 74.1677 216.077 74.3214 215.287 74.6287C214.539 74.8922 214.165 75.4411 214.165 76.2754C214.165 76.7146 214.269 77.0659 214.477 77.3293C214.726 77.5928 215.267 77.8563 216.098 78.1198C216.929 78.3393 218.239 78.6248 220.027 78.976L224.579 79.8982C227.115 80.4691 228.986 81.4132 230.192 82.7305C231.397 84.0479 232 86.1337 232 88.988C232 91.491 231.563 93.489 230.69 94.982C229.817 96.4311 228.341 97.4631 226.263 98.0778C224.226 98.6926 221.399 99 217.782 99C215.038 99 212.502 98.8683 210.174 98.6048C207.887 98.2974 205.829 97.9461 204 97.5509V89.4491L204.187 89.3174Z" fill="#2B2E41"/>
<path d="M183.947 66C188.004 66 191.279 66.4391 193.773 67.3174C196.267 68.1956 198.084 69.8204 199.225 72.1916C200.408 74.519 201 77.9002 201 82.3353V98.4072H191.808L191.491 95.3772H191.301C190.498 96.475 189.251 97.3533 187.56 98.012C185.87 98.6707 183.672 99 180.967 99C173.656 99 170 95.4431 170 88.3293C170 85.2994 170.951 82.9281 172.853 81.2156C174.797 79.4591 177.84 78.5808 181.982 78.5808H191.364C191.068 76.7365 190.307 75.507 189.082 74.8922C187.856 74.2335 185.764 73.9042 182.806 73.9042C180.946 73.9042 179.108 74.0579 177.29 74.3653C175.515 74.6287 173.952 74.9361 172.599 75.2874L172.409 75.1557L172.472 67.515C173.318 67.2515 174.395 67.01 175.706 66.7904C177.016 66.5269 178.389 66.3293 179.826 66.1976C181.305 66.0659 182.679 66 183.947 66ZM183.566 91.2275C186.187 91.2275 188.152 90.8982 189.462 90.2395C190.772 89.5369 191.449 88.4391 191.491 86.9461V85.2994H184.327C182.468 85.2994 181.157 85.5848 180.397 86.1557C179.678 86.6826 179.319 87.4072 179.319 88.3293C179.319 89.4271 179.699 90.1956 180.46 90.6347C181.221 91.0299 182.256 91.2275 183.566 91.2275Z" fill="#2B2E41"/>
<path d="M167 89.1198V97.6826C165.953 98.1218 164.404 98.4511 162.353 98.6707C160.301 98.8902 158.124 99 155.821 99C152.514 99 149.75 98.517 147.531 97.5509C145.354 96.5848 143.721 94.9162 142.633 92.5449C141.586 90.1737 141.042 86.8802 141 82.6647C141 78.3174 141.565 74.9361 142.696 72.521C143.868 70.1058 145.564 68.4152 147.783 67.4491C150.002 66.483 152.66 66 155.758 66C157.601 66 159.547 66.1317 161.599 66.3952C163.651 66.6587 165.325 67.01 166.623 67.4491L166.686 76.2754L166.498 76.4072C165.242 76.1437 163.902 75.9461 162.478 75.8144C161.055 75.6826 159.652 75.6168 158.271 75.6168C155.465 75.6168 153.519 76.1657 152.43 77.2635C151.341 78.3613 150.797 80.2056 150.797 82.7964C150.797 84.7725 151.027 86.2435 151.488 87.2096C151.948 88.1756 152.723 88.8124 153.812 89.1198C154.9 89.4271 156.386 89.5808 158.271 89.5808C159.736 89.5808 161.138 89.515 162.478 89.3832C163.818 89.2515 165.242 89.0978 166.749 88.9222L167 89.1198Z" fill="#2B2E41"/>
<path d="M124.362 97H115V66.315H122.606L123.367 72.6159H123.543C123.894 70.2636 124.732 68.5833 126.059 67.5752C127.385 66.5251 129.355 66 131.968 66C133.021 66 133.977 66.063 134.835 66.189C135.693 66.273 136.415 66.357 137 66.4411V76.2703L136.883 76.3963C136.259 76.2283 135.537 76.0813 134.718 75.9553C133.938 75.8293 133.041 75.7663 132.027 75.7663C130.583 75.7663 129.277 76.0183 128.106 76.5224C126.975 77.0264 126.078 78.0135 125.415 79.4837C124.791 80.9119 124.479 83.0542 124.479 85.9106L124.362 97Z" fill="#2B2E41"/>
<path d="M109.569 97.3533C108.5 97.7924 107.011 98.1876 105.102 98.5389C103.232 98.8463 100.999 99 98.4029 99C95.12 99 92.3142 98.517 89.9857 97.5509C87.6953 96.5409 85.9584 94.8503 84.7751 92.479C83.5917 90.0639 83 86.7265 83 82.4671C83 76.6707 84.1452 72.477 86.4356 69.8862C88.7641 67.2954 92.3524 66 97.2004 66C100.674 66 103.404 66.5709 105.389 67.7126C107.412 68.8543 108.843 70.479 109.683 72.5868C110.561 74.6507 111 77.1098 111 79.9641C111 80.7984 110.962 81.6986 110.885 82.6647C110.847 83.6307 110.752 84.5748 110.599 85.497L110.37 85.7605H91.5317C91.7989 87.6926 92.5815 88.9661 93.8794 89.5808C95.2154 90.1956 97.3722 90.503 100.35 90.503C102.335 90.503 103.976 90.4591 105.274 90.3713C106.61 90.2395 107.965 90.0639 109.339 89.8443L109.569 90.0419V97.3533ZM103.041 78.8443C103.041 77.7904 102.888 76.8902 102.583 76.1437C102.316 75.3533 101.762 74.7605 100.922 74.3653C100.082 73.9261 98.8419 73.7066 97.2004 73.7066C94.7955 73.7066 93.2113 74.1896 92.4479 75.1557C91.7226 76.0778 91.3599 77.3074 91.3599 78.8443H103.041Z" fill="#2B2E41"/>
<path d="M61.5031 99C58.0745 99 55.6335 97.9133 54.1801 95.7399C52.7267 93.5665 52 90.4617 52 86.4254V66H60.9441L61 83.8306C61 85.8266 61.2981 87.246 61.8944 88.0887C62.4907 88.8871 63.7019 89.2863 65.528 89.2863C67.2795 89.2863 68.4534 88.9315 69.0497 88.2218C69.6832 87.4677 70.0186 86.2036 70.0559 84.4294V66H79V98.4012H70.5031L70.0559 94.7419H69.8882C69.4037 96.0282 68.4162 97.0706 66.9255 97.869C65.4348 98.623 63.6273 99 61.5031 99Z" fill="#2B2E41"/>
<path d="M31.442 89.1547V75.816L24 75.816L26.9474 67.5586L32.4211 67.5586V60L43.7895 60L41.182 67.5586H47.8174V75.816H41.182V86.9316C41.182 88.1173 41.324 88.943 41.6081 89.4088C41.8922 89.8322 42.5415 90.044 43.5561 90.044C44.2055 90.044 44.8954 90.0228 45.6259 89.9805C46.3564 89.8958 47.0869 89.8111 47.8174 89.7264L48 89.8534V98.1107C46.052 98.7036 43.475 99 40.2689 99C37.0628 99 34.7901 98.2378 33.4509 96.7134C32.1116 95.1889 31.442 92.6694 31.442 89.1547Z" fill="#2B2E41"/>
<path d="M4.75233 93.9168L7.90689 86.3031L0 66.0832V66H7.33333C8.09808 68.1912 8.80819 70.3962 9.46369 72.6152C10.1465 74.8341 10.6927 77.1085 11.1024 79.4383H11.1844C11.594 77.1362 12.113 74.8757 12.7412 72.6568C13.3966 70.4378 14.1341 68.2189 14.9534 66H22V66.1248L11.4711 94H4.75233V93.9168Z" fill="#FF711B"/>
<path d="M290.427 1.30236C278.386 2.97907 271.585 9.40645 264.729 25.5588C263.447 28.6327 261.663 32.2656 260.771 33.6628C259.545 35.5072 259.154 36.8486 259.154 38.8606C259.154 41.4316 259.043 41.6552 256.646 43.3319C253.859 45.288 253.747 45.6793 254.695 51.3242C255.029 53.5039 255.029 56.3543 254.639 59.7077C253.97 65.7998 254.751 74.2951 256.312 77.425L257.315 79.4929L254.193 80.1077C243.435 82.2315 238.139 85.1937 240.592 87.7088C250.626 97.7131 349.46 101.57 403.141 94.0803C415.684 92.2918 423.599 90.1121 425.996 87.7088C428.282 85.3614 423.711 82.5669 414.067 80.443C412.283 80.0518 412.172 79.3811 411.391 65.9674C411.113 61.1609 410.555 55.7954 410.221 54.1187C409.496 50.5417 406.765 46.2382 404.312 44.6173C403.364 44.0026 401.859 42.1023 400.967 40.4256C398.236 35.1719 395.616 33.0481 388.536 30.3653C383.185 28.2974 382.349 27.7944 382.349 26.6766C382.349 22.9319 373.374 18.1812 369.528 19.9697C368.914 20.1933 366.852 18.796 362.894 15.4985C352.191 6.50016 344.666 3.03496 333.183 1.86126C325.657 1.0788 294.998 0.687566 290.427 1.30236ZM320.473 3.03496C332.569 3.64975 341.321 4.99112 346.561 6.89139C348.456 7.61796 349.961 8.28865 349.85 8.40043C349.739 8.51221 346.394 8.06509 342.436 7.3944C332.681 5.82947 317.184 5.21468 302.412 5.82947C293.716 6.16482 290.037 6.16482 289.814 5.71769C289.312 4.93523 288.532 24.1615 288.978 26.0059C289.2 26.8442 289.758 27.6267 290.204 27.8503C290.706 28.0179 295.388 27.8503 300.628 27.5149C305.868 27.1237 319.581 26.8442 331.064 26.8442C349.683 26.7883 355.536 27.0678 369.249 28.465L372.594 28.8004L368.97 24.9998C362.838 18.5725 362.894 18.2371 369.026 23.0996C374.656 27.5149 375.325 27.8503 382.126 30.0859C386.084 31.3713 390.432 32.9922 391.825 33.607L394.334 34.7807H391.268C389.54 34.8365 387.867 35.116 387.477 35.5072C387.087 35.8985 386.808 37.3516 386.808 38.7489V41.3757L372.203 41.7111C364.12 41.9346 350.686 42.1023 342.269 42.1023H326.995L324.152 40.202C317.351 35.7308 312.724 34.2776 305.088 34.2776H299.959L299.569 36.0102C299.067 38.2458 299.736 43.6113 300.74 45.5675C301.353 46.7412 302.356 47.356 305.255 48.2502C310.996 50.0387 318.41 51.0447 325.657 51.0447C331.176 51.0447 332.179 50.933 332.179 50.2064C332.179 49.0327 330.618 46.0146 329.28 44.5056L328.166 43.3319L331.231 42.9406C332.96 42.7171 334.632 42.773 335.078 42.9965C335.858 43.4995 373.541 43.4437 381.568 42.8847L386.641 42.5494L387.031 45.6793C387.254 47.356 387.867 49.3121 388.425 49.9828C389.373 51.2124 389.54 51.2124 395.226 50.5417C401.246 49.871 402.417 49.3121 402.417 46.9089C402.417 45.9028 402.528 45.9028 403.866 47.1883C404.646 47.9149 405.761 49.4239 406.374 50.5976C408.325 54.454 408.716 57.4162 409.831 78.3751C409.942 80.443 409.719 81.0019 408.381 81.9521C406.932 83.0699 405.483 83.1817 383.575 84.1318C352.414 85.4173 305.868 86.4233 299.179 85.9762C292.768 85.529 292.099 85.026 291.653 80.3871C291.375 77.5367 291.43 77.2014 292.545 76.9219C293.883 76.5866 293.939 76.363 292.935 72.283C289.535 58.4223 286.079 48.7532 283.347 45.5116L281.452 43.3319L283.626 41.5993C287.974 38.1341 291.207 39.8667 293.939 47.1324C295.555 51.5477 297.506 60.5461 298.008 65.9674L298.343 69.5444L299.68 67.197C300.851 65.0732 300.907 64.7937 300.126 63.8995C299.625 63.3406 298.51 60.1549 297.618 56.7455C295.667 49.368 293.047 42.7171 291.207 40.7609C289.2 38.5812 287.472 38.4135 284.016 40.0902C282.4 40.8727 280.281 41.5434 279.334 41.5434C277.773 41.5434 277.55 41.7669 277.494 43.0524L277.383 44.6173L277.16 43.1083C276.993 41.9346 276.491 41.4316 275.432 41.208C274.596 41.0404 272.533 40.5374 270.805 40.0902C266.736 39.0842 266.345 39.0842 266.791 40.2579C267.014 40.9286 266.568 40.7609 265.621 39.699C264.785 38.8606 263.502 38.19 262.778 38.19C260.994 38.19 260.938 36.7368 262.666 34.2217C263.335 33.1598 264.394 31.2037 265.008 29.8623L266.067 27.4031L266.791 29.1916L267.516 30.9242L273.536 30.8683C280.672 30.8124 282.065 30.4771 282.901 28.6886C283.292 27.9061 283.961 23.2672 284.407 18.3489C285.41 8.45632 285.243 7.61796 282.344 8.34454C280.337 8.84755 275.822 12.9834 273.648 16.3927C272.143 18.796 270.136 20.3051 269.467 19.6344C269.3 19.5226 270.303 17.79 271.641 15.7779C274.707 11.1949 279.445 6.8355 283.515 4.82345C286.859 3.20263 287.194 3.14674 306.816 2.53195C308.376 2.47606 314.508 2.69962 320.473 3.03496ZM314.341 8.5681C311.442 8.79166 307.708 9.01522 306.035 9.07111C303.861 9.127 303.137 9.29467 303.415 9.79769C303.582 10.1889 304.92 13.5423 306.425 17.2311L309.157 23.9379L301.018 24.5527C296.559 24.8881 292.712 25.0557 292.489 24.944C291.932 24.6645 291.876 8.90344 292.434 8.40043C292.601 8.17687 298.844 8.06509 306.202 8.12098C316.85 8.17687 318.522 8.28865 314.341 8.5681ZM278.163 22.373C278.721 22.9878 278.721 23.1555 278.219 22.876C277.773 22.5966 277.383 22.9878 276.993 23.882C276.547 25.1116 276.101 25.3352 274.317 25.3352C273.035 25.3352 271.585 24.8881 270.805 24.2733C270.08 23.7144 269.077 23.1555 268.631 22.9878C267.126 22.4289 270.359 21.4788 273.982 21.4788C276.547 21.4229 277.606 21.6464 278.163 22.373ZM377.443 23.4349C379.116 24.3292 380.286 25.7264 378.837 25.1675C378.391 24.9998 377.666 25.2234 377.332 25.6146C376.384 26.7324 375.158 25.95 374.21 23.7144C373.485 21.9818 373.485 21.9259 374.712 22.3171C375.381 22.4848 376.607 23.0437 377.443 23.4349ZM311.833 36.7927C317.24 38.19 322.089 40.8727 325.88 44.6173C327.831 46.4617 329.392 48.3061 329.392 48.6973C329.392 49.6475 323.873 49.5357 316.85 48.5297C310.495 47.6354 306.481 46.5176 303.973 44.9527C302.189 43.8908 301.52 41.9346 301.52 37.7428V35.9543H305.032C306.927 35.9543 310.049 36.3456 311.833 36.7927ZM396.898 37.9664C398.347 39.3078 400.187 42.773 400.187 44.282C400.187 47.7472 398.403 48.8091 392.661 48.8091C389.763 48.8091 389.707 48.7532 389.428 46.9647C388.704 43.0524 388.369 38.19 388.704 37.2957C389.205 35.9543 395.226 36.4574 396.898 37.9664ZM261.607 46.2382C262.611 47.5795 262.778 48.4738 262.611 53.0568C262.555 55.9631 262.722 58.7576 263.001 59.3165C263.893 60.9932 262.22 62.614 261.273 60.9373C261.106 60.5461 260.381 57.8633 259.712 55.0129C258.987 52.1066 258.095 48.9209 257.705 47.9149C257.036 46.2382 257.036 46.0705 258.207 45.288C259.768 44.1702 260.214 44.282 261.607 46.2382ZM264.004 55.0688C263.893 55.7954 263.781 55.3483 263.781 54.1187C263.725 52.8891 263.837 52.3302 264.004 52.8332C264.116 53.3921 264.116 54.3982 264.004 55.0688ZM284.685 55.3483C284.964 55.9072 285.354 57.0809 285.577 58.031L285.912 59.7077L285.02 58.1428C283.849 56.019 282.846 56.9132 281.954 60.7696C281.006 65.1291 281.508 79.2134 282.79 82.0638L283.738 84.2995L284.908 82.9022L286.079 81.5049L285.689 83.1817C285.187 85.1937 284.016 86.5351 283.18 86.0321C282.846 85.8085 282.121 84.1877 281.619 82.4551C280.337 78.3192 280.17 61.5521 281.396 58.031C282.623 54.3982 283.738 53.5039 284.685 55.3483ZM258.318 57.3603C257.872 57.5839 257.482 58.3664 257.426 59.037C257.426 59.7077 257.259 59.9313 257.092 59.5401C256.925 59.1488 256.98 57.8633 257.203 56.7455C257.538 54.7894 257.649 54.7335 258.374 55.7954C259.043 56.7455 259.043 56.9132 258.318 57.3603ZM264.562 60.099C264.45 60.8255 264.339 60.3784 264.339 59.1488C264.283 57.9192 264.394 57.3603 264.562 57.8633C264.673 58.4223 264.673 59.4283 264.562 60.099ZM256.757 67.3647C256.646 68.7061 256.534 67.7559 256.534 65.2968C256.534 62.8376 256.646 61.7757 256.757 62.8935C256.869 64.0672 256.869 66.0792 256.757 67.3647ZM258.318 74.6304C258.541 75.1893 258.486 75.6365 258.151 75.6365C257.872 75.6365 257.482 74.854 257.259 73.9039C256.813 71.4447 256.925 69.9357 257.482 72.0036C257.705 72.8978 258.095 74.1274 258.318 74.6304Z" fill="#2B2E41"/>
<path d="M352.916 54.454C338.868 54.9012 337.419 55.2924 333.573 59.54C330.228 63.2847 325.434 71.1652 325.601 72.5625C325.88 74.4069 335.468 77.3132 343.607 77.9838C356.149 78.9899 385.861 77.5367 390.822 75.6365C394.612 74.1833 397.957 71.9477 397.957 70.774C397.957 69.3209 393.721 61.0491 391.825 58.7017C388.704 55.0129 387.812 54.7335 375.66 54.3981C369.695 54.2305 359.438 54.2864 352.916 54.454Z" fill="#2B2E41"/>
<path d="M400.633 63.0611C400.466 63.2847 400.689 64.3466 401.19 65.4644C401.636 66.5822 402.472 69.0414 402.974 70.8299C403.476 72.6743 404.2 74.2951 404.535 74.4069C404.869 74.5186 405.817 73.9597 406.597 73.1773C407.935 71.8359 408.047 71.3888 407.88 67.4206L407.712 63.0611L404.368 62.8935C402.472 62.7817 400.8 62.8935 400.633 63.0611ZM406.876 68.7619C406.876 69.1532 406.653 69.4885 406.319 69.4885C406.04 69.4885 405.761 68.8178 405.761 67.9236C405.761 66.7499 405.873 66.5822 406.319 67.2529C406.597 67.7 406.876 68.4266 406.876 68.7619Z" fill="#2B2E41"/>
<path d="M303.304 64.8496C302.189 65.2968 299.792 70.5505 299.959 72.1713C300.182 74.0715 302.579 74.9099 308.99 75.4129L313.561 75.8041L315.233 73.6244C316.181 72.3948 318.02 69.8798 319.302 67.9236L321.644 64.4584L312.836 64.5143C307.986 64.5143 303.694 64.682 303.304 64.8496ZM308.432 68.1472C310.328 69.9915 308.767 72.3389 306.648 70.8299C305.979 70.3828 305.143 70.1592 304.865 70.3269C304.53 70.4946 304.307 70.1592 304.307 69.5444C304.307 67.5324 306.927 66.6381 308.432 68.1472Z" fill="#2B2E41"/>
</svg>
